<?xml version="1.0" encoding="utf-8"?>
<!-- Generator: Adobe Illustrator 17.0.0, SVG Export Plug-In . SVG Version: 6.00 Build 0)  -->
<!DOCTYPE svg PUBLIC "-//W3C//DTD SVG 1.1//EN" "http://www.w3.org/Graphics/SVG/1.1/DTD/svg11.dtd">
<svg version="1.1" id="Layer_1" xmlns="http://www.w3.org/2000/svg" xmlns:xlink="http://www.w3.org/1999/xlink" x="0px" y="0px"
	 width="34px" height="44px" viewBox="0 0 34 44" enable-background="new 0 0 34 44" xml:space="preserve">
<path fill="#FFFFFF" d="M16.099,17.952v5.107c-1.021,0.121-2.397,0.584-3.044,1.015h7.104c-0.647-0.431-2.021-0.893-3.044-1.015
	v-5.107c2.001-0.25,3.552-1.957,3.552-4.026c0-0.019-0.002-0.036-0.002-0.054l0.002-0.013c0-2.207-0.752-4.018-1.068-4.653
	c-0.086-0.172-0.263-0.28-0.455-0.28H14.07c-0.191,0-0.367,0.108-0.454,0.28c-0.316,0.635-1.068,2.446-1.068,4.653v0.013
	c0,0.018,0,0.035,0,0.054C12.548,15.995,14.097,17.702,16.099,17.952z M13.591,12.906h6.172c0.125,0.495,0.453,4.028-3.155,4.028
	C13.093,16.934,13.497,13.346,13.591,12.906z"/>
<linearGradient id="SVGID_1_" gradientUnits="userSpaceOnUse" x1="-1.5612" y1="34.9217" x2="28.4684" y2="4.8921">
	<stop  offset="0" style="stop-color:#37374C"/>
	<stop  offset="1" style="stop-color:#48425D"/>
</linearGradient>
<path fill="url(#SVGID_1_)" d="M8.855,41.715l0.084-0.252l2.922-8.816c0.222,0.067,0.449,0.12,0.675,0.178
	c1.326,0.341,2.711,0.536,4.144,0.536c9.212,0,16.68-7.468,16.68-16.68c0-0.388-0.032-0.769-0.058-1.15
	C32.709,6.857,25.504,0,16.68,0C7.468,0,0,7.468,0,16.68c0,7.219,4.594,13.348,11.011,15.671l-3.007,9.07
	c-0.691,0.027-1.246,0.587-1.246,1.284C6.759,43.42,7.338,44,8.053,44c0.714,0,1.294-0.58,1.294-1.294
	c0-0.144-0.032-0.278-0.078-0.405C9.186,42.07,9.044,41.868,8.855,41.715z M12.548,13.872v-0.013c0-2.207,0.752-4.018,1.068-4.653
	c0.086-0.172,0.263-0.28,0.454-0.28h5.074c0.192,0,0.368,0.108,0.455,0.28c0.316,0.635,1.068,2.446,1.068,4.653l-0.002,0.013
	c0,0.018,0.002,0.035,0.002,0.054c0,2.069-1.551,3.776-3.552,4.026v5.107c1.023,0.121,2.397,0.584,3.044,1.015h-7.104
	c0.647-0.431,2.023-0.893,3.044-1.015v-5.107c-2.003-0.25-3.552-1.957-3.552-4.026C12.548,13.907,12.548,13.89,12.548,13.872z
	 M16.607,16.934c3.608,0,3.28-3.533,3.155-4.028H13.59C13.497,13.346,13.093,16.934,16.607,16.934z"/>
</svg>
