<?xml version="1.0" encoding="utf-8"?>
<!-- Generator: Adobe Illustrator 17.0.0, SVG Export Plug-In . SVG Version: 6.00 Build 0)  -->
<!DOCTYPE svg PUBLIC "-//W3C//DTD SVG 1.1//EN" "http://www.w3.org/Graphics/SVG/1.1/DTD/svg11.dtd">
<svg version="1.1" id="Layer_1" xmlns="http://www.w3.org/2000/svg" xmlns:xlink="http://www.w3.org/1999/xlink" x="0px" y="0px"
	 width="34px" height="44px" viewBox="0 0 34 44" enable-background="new 0 0 34 44" xml:space="preserve">
<g>
	<linearGradient id="SVGID_1_" gradientUnits="userSpaceOnUse" x1="-1.5612" y1="34.9217" x2="28.4684" y2="4.8921">
		<stop  offset="0" style="stop-color:#E288B3"/>
		<stop  offset="1" style="stop-color:#EE8EB7"/>
	</linearGradient>
	<path fill="url(#SVGID_1_)" d="M15.472,19.189c0-0.983-0.93-1.619-2.077-1.619s-2.08,0.636-2.08,1.619s0.771,1.944,1.919,1.944
		C14.382,21.132,15.472,20.172,15.472,19.189z M19.924,17.57c-1.147,0-2.077,0.636-2.077,1.619s1.09,1.944,2.239,1.944
		c1.147,0,1.918-0.96,1.918-1.944C22.004,18.205,21.075,17.57,19.924,17.57z M16.66,21.132c-0.298,0-0.889,1.189-0.889,1.782
		c0,0.594,0.295,0.891,0.889,0.891s0.889-0.297,0.889-0.891C17.549,22.321,16.958,21.132,16.66,21.132z M8.855,41.715l0.084-0.252
		l2.922-8.816c0.221,0.066,0.448,0.115,0.673,0.173c1.328,0.34,2.712,0.541,4.146,0.541c9.212,0,16.68-7.468,16.68-16.68
		c0-0.388-0.032-0.769-0.058-1.15C32.709,6.857,25.504,0,16.68,0C7.468,0,0,7.468,0,16.68c0,7.219,4.594,13.348,11.011,15.671
		l-3.007,9.07c-0.691,0.027-1.246,0.587-1.246,1.284C6.759,43.42,7.338,44,8.053,44c0.714,0,1.294-0.58,1.294-1.294
		c0-0.143-0.039-0.274-0.081-0.403C9.187,42.066,9.045,41.869,8.855,41.715z M9.594,19.946v-6.233c0-3.935,3.129-7.126,7.065-7.126
		c3.934,0,7.065,3.19,7.065,7.126v6.233c0,0.654-0.363,1.55-0.842,1.994l-2.085,1.949c-0.481,0.446-1.007,1.276-1.169,1.846
		c-0.164,0.573-0.832,1.038-1.486,1.038h-2.97c-0.652,0-1.312-0.465-1.475-1.038c-0.163-0.57-0.682-1.402-1.161-1.846l-2.101-1.949
		C9.957,21.496,9.594,20.6,9.594,19.946z"/>
	<path fill="#FFFFFF" d="M12.538,23.889c0.48,0.445,0.999,1.276,1.161,1.846c0.163,0.573,0.823,1.038,1.475,1.038h2.97
		c0.654,0,1.322-0.465,1.486-1.038c0.162-0.57,0.688-1.401,1.169-1.846l2.085-1.949c0.48-0.443,0.842-1.339,0.842-1.994v-6.233
		c0-3.935-3.131-7.126-7.065-7.126c-3.936,0-7.065,3.19-7.065,7.126v6.233c0,0.654,0.363,1.55,0.842,1.994L12.538,23.889z
		 M16.66,23.806c-0.594,0-0.889-0.297-0.889-0.891c0-0.593,0.591-1.782,0.889-1.782s0.889,1.189,0.889,1.782
		C17.549,23.509,17.254,23.806,16.66,23.806z M20.086,21.132c-1.148,0-2.239-0.96-2.239-1.944c0-0.983,0.93-1.619,2.077-1.619
		c1.15,0,2.08,0.636,2.08,1.619C22.004,20.172,21.233,21.132,20.086,21.132z M11.315,19.189c0-0.983,0.933-1.619,2.08-1.619
		s2.077,0.636,2.077,1.619s-1.09,1.944-2.238,1.944C12.086,21.132,11.315,20.172,11.315,19.189z"/>
</g>
</svg>
