<?xml version="1.0" encoding="utf-8"?>
<!-- Generator: Adobe Illustrator 17.0.0, SVG Export Plug-In . SVG Version: 6.00 Build 0)  -->
<!DOCTYPE svg PUBLIC "-//W3C//DTD SVG 1.1//EN" "http://www.w3.org/Graphics/SVG/1.1/DTD/svg11.dtd">
<svg version="1.1" id="Layer_1" xmlns="http://www.w3.org/2000/svg" xmlns:xlink="http://www.w3.org/1999/xlink" x="0px" y="0px"
	 width="34px" height="44px" viewBox="0 0 34 44" enable-background="new 0 0 34 44" xml:space="preserve">
<g>
	<path fill="none" d="M8.939,41.463l6.391-5.01c-1.181-1.085-2.115-2.317-2.796-3.632c-0.224-0.057-0.452-0.107-0.673-0.173
		L8.939,41.463z"/>
	<path fill="#89C87C" d="M11.168,16.297L10.2,18.814c-0.107,0.277-0.371,0.447-0.651,0.447c-0.083,0-0.168-0.015-0.25-0.047
		c-0.277-0.107-0.447-0.37-0.447-0.65c0-0.083,0.015-0.168,0.046-0.251l0.969-2.519c-0.105-0.012-0.21-0.02-0.318-0.02
		c-1.538,0-2.789,1.251-2.789,2.789s1.251,2.789,2.789,2.789s2.789-1.251,2.789-2.789C12.338,17.63,11.875,16.804,11.168,16.297z"/>
	<path fill="#89C87C" d="M18.882,17.866h0.486c0.174-1.033,0.728-1.938,1.512-2.567l-0.715-1.286L18.882,17.866z"/>
	<path fill="#89C87C" d="M20.795,17.866h1.512l-0.734-1.321C21.201,16.899,20.928,17.354,20.795,17.866z"/>
	<path fill="#89C87C" d="M22.792,15.867l1.31,2.358c0.059,0.105,0.088,0.222,0.088,0.338c0,0.122-0.032,0.244-0.096,0.354
		c-0.125,0.213-0.354,0.343-0.601,0.343h-2.697c0.311,1.201,1.4,2.091,2.697,2.091c1.538,0,2.789-1.251,2.789-2.789
		s-1.251-2.789-2.789-2.789C23.25,15.775,23.016,15.809,22.792,15.867z"/>
	<polygon fill="#89C87C" points="17.586,17.344 19.039,12.986 12.84,12.986 12.796,13.118 	"/>
	<linearGradient id="SVGID_1_" gradientUnits="userSpaceOnUse" x1="-1.5612" y1="34.9217" x2="28.4684" y2="4.8921">
		<stop  offset="0" style="stop-color:#84BC77"/>
		<stop  offset="1" style="stop-color:#89C87C"/>
	</linearGradient>
	<path fill="url(#SVGID_1_)" d="M8.855,41.715l0.084-0.252l2.922-8.816c0.221,0.066,0.448,0.115,0.673,0.173
		c1.328,0.34,2.712,0.541,4.146,0.541c9.212,0,16.68-7.468,16.68-16.68c0-0.388-0.032-0.769-0.058-1.15
		C32.709,6.857,25.504,0,16.68,0C7.468,0,0,7.468,0,16.68c0,7.219,4.594,13.348,11.011,15.671l-3.007,9.07
		c-0.691,0.027-1.246,0.587-1.246,1.284C6.759,43.42,7.338,44,8.053,44c0.714,0,1.294-0.58,1.294-1.294
		c0-0.143-0.039-0.274-0.081-0.403C9.187,42.066,9.045,41.869,8.855,41.715z M5.366,18.563c0-2.306,1.876-4.183,4.183-4.183
		c0.284,0,0.562,0.029,0.83,0.083l2.005-5.213c0.104-0.269,0.362-0.447,0.651-0.447h2.091c0.385,0,0.697,0.312,0.697,0.697
		c0,0.385-0.312,0.697-0.697,0.697h-1.613l-0.536,1.394h6.526l0.232-0.697h-0.427c-0.385,0-0.697-0.312-0.697-0.697
		S18.923,9.5,19.308,9.5h2.789c0.385,0,0.697,0.312,0.697,0.697s-0.312,0.697-0.697,0.697h-0.892l-0.441,1.324l1.334,2.402
		c0.436-0.155,0.905-0.24,1.393-0.24c2.306,0,4.183,1.877,4.183,4.183c0,2.307-1.876,4.183-4.183,4.183
		c-2.069,0-3.791-1.51-4.124-3.486h-1.453c-0.168,0-0.332-0.061-0.461-0.174l-5.494-4.848l-0.28,0.727
		c1.227,0.729,2.052,2.069,2.052,3.597c0,2.307-1.876,4.183-4.183,4.183C7.242,22.746,5.366,20.87,5.366,18.563z"/>
	<path fill="#FFFFFF" d="M13.732,18.563c0-1.529-0.825-2.868-2.052-3.597l0.28-0.727l5.494,4.848
		c0.129,0.114,0.293,0.174,0.461,0.174h1.453c0.333,1.976,2.055,3.486,4.124,3.486c2.306,0,4.183-1.876,4.183-4.183
		c0-2.306-1.876-4.183-4.183-4.183c-0.488,0-0.957,0.085-1.393,0.24l-1.334-2.402l0.441-1.324h0.892
		c0.385,0,0.697-0.312,0.697-0.697c0-0.385-0.312-0.697-0.697-0.697h-2.789c-0.385,0-0.697,0.312-0.697,0.697
		s0.312,0.697,0.697,0.697h0.427l-0.232,0.697h-6.526l0.536-1.394h1.613c0.385,0,0.697-0.312,0.697-0.697
		c0-0.385-0.312-0.697-0.697-0.697h-2.091c-0.288,0-0.547,0.178-0.651,0.447l-2.005,5.213c-0.268-0.054-0.546-0.083-0.83-0.083
		c-2.307,0-4.183,1.877-4.183,4.183c0,2.307,1.876,4.183,4.183,4.183C11.855,22.746,13.732,20.87,13.732,18.563z M26.28,18.563
		c0,1.538-1.251,2.789-2.789,2.789c-1.297,0-2.386-0.891-2.697-2.091h2.697c0.247,0,0.476-0.131,0.601-0.343
		c0.064-0.109,0.096-0.232,0.096-0.354c0-0.116-0.029-0.233-0.088-0.338l-1.31-2.358c0.224-0.058,0.458-0.093,0.7-0.093
		C25.029,15.775,26.28,17.026,26.28,18.563z M20.795,17.866c0.133-0.512,0.406-0.967,0.778-1.321l0.734,1.321H20.795z
		 M20.166,14.013l0.715,1.286c-0.785,0.629-1.338,1.534-1.512,2.567h-0.486L20.166,14.013z M12.84,12.986h6.199l-1.453,4.358
		l-4.79-4.226L12.84,12.986z M9.549,21.352c-1.538,0-2.789-1.251-2.789-2.789s1.251-2.789,2.789-2.789
		c0.108,0,0.214,0.008,0.318,0.02l-0.969,2.519c-0.031,0.082-0.046,0.167-0.046,0.251c0,0.28,0.17,0.544,0.447,0.65
		c0.082,0.032,0.167,0.047,0.25,0.047c0.28,0,0.544-0.17,0.651-0.447l0.968-2.517c0.707,0.507,1.17,1.333,1.17,2.266
		C12.338,20.101,11.087,21.352,9.549,21.352z"/>
</g>
</svg>
