<?xml version="1.0" encoding="utf-8"?>
<!-- Generator: Adobe Illustrator 17.0.0, SVG Export Plug-In . SVG Version: 6.00 Build 0)  -->
<!DOCTYPE svg PUBLIC "-//W3C//DTD SVG 1.1//EN" "http://www.w3.org/Graphics/SVG/1.1/DTD/svg11.dtd">
<svg version="1.1" id="Layer_1" xmlns="http://www.w3.org/2000/svg" xmlns:xlink="http://www.w3.org/1999/xlink" x="0px" y="0px"
	 width="34px" height="44px" viewBox="0 0 34 44" enable-background="new 0 0 34 44" xml:space="preserve">
<g>
	<path fill="#FFFFFF" d="M13.167,23.413c0.029,0.262,0.207,0.465,0.465,0.465h5.572c0.256,0,0.432-0.208,0.463-0.465l1.158-13.436
		c0.027-0.26-0.205-0.494-0.461-0.494h-7.895c-0.256,0-0.492,0.238-0.463,0.505L13.167,23.413z M19.76,12.485l-0.984,10.312h-4.688
		l-1-10.312C13.088,12.485,19.76,12.485,19.76,12.485z"/>
	<linearGradient id="SVGID_1_" gradientUnits="userSpaceOnUse" x1="-1.5612" y1="34.9217" x2="28.4684" y2="4.8921">
		<stop  offset="0" style="stop-color:#37374C"/>
		<stop  offset="1" style="stop-color:#48425D"/>
	</linearGradient>
	<path fill="url(#SVGID_1_)" d="M8.856,41.715l0.084-0.252l2.922-8.816c0.221,0.066,0.448,0.115,0.672,0.173
		c1.328,0.34,2.712,0.541,4.146,0.541c9.212,0,16.68-7.468,16.68-16.68c0-0.388-0.032-0.769-0.058-1.15
		C32.709,6.857,25.504,0,16.68,0C7.468,0,0,7.468,0,16.68c0,7.219,4.594,13.348,11.011,15.671l-3.007,9.07
		c-0.691,0.027-1.246,0.587-1.246,1.284C6.759,43.42,7.338,44,8.053,44c0.714,0,1.294-0.58,1.294-1.294
		c0-0.143-0.039-0.274-0.081-0.403C9.187,42.066,9.045,41.869,8.856,41.715z M12.469,9.483h7.895c0.256,0,0.488,0.234,0.461,0.494
		l-1.158,13.436c-0.031,0.257-0.207,0.465-0.463,0.465h-5.572c-0.258,0-0.435-0.203-0.465-0.465l-1.16-13.425
		C11.977,9.721,12.214,9.483,12.469,9.483z M14.064,22.549c0.013,0.137,0.137,0.249,0.274,0.249h4.188
		c0.138,0,0.261-0.112,0.274-0.249l0.937-9.815c0.013-0.137-0.089-0.249-0.226-0.249h-6.172c-0.137,0-0.239,0.112-0.226,0.249
		L14.064,22.549z"/>
</g>
</svg>
