<?xml version="1.0" encoding="utf-8"?>
<!-- Generator: Adobe Illustrator 17.0.0, SVG Export Plug-In . SVG Version: 6.00 Build 0)  -->
<!DOCTYPE svg PUBLIC "-//W3C//DTD SVG 1.1//EN" "http://www.w3.org/Graphics/SVG/1.1/DTD/svg11.dtd">
<svg version="1.1" id="Layer_1" xmlns="http://www.w3.org/2000/svg" xmlns:xlink="http://www.w3.org/1999/xlink" x="0px" y="0px"
	 width="34px" height="44px" viewBox="0 0 34 44" enable-background="new 0 0 34 44" xml:space="preserve">
<path fill="#FFFFFF" d="M16.161,17.857c-0.009,0.259-0.148,4.735-0.148,4.735c-0.012,0.268-0.032,0.35-0.136,0.466
	c-0.111,0.109-0.498,0.16-0.762,0.213c-0.564,0.114-2.102,0.377-2.102,0.377c-0.187,0.008-0.327,0.062-0.333,0.21
	c-0.006,0.144,0.11,0.213,0.259,0.215c0,0,2.358-0.109,3.668-0.109s3.668,0.109,3.668,0.109c0.149-0.003,0.264-0.071,0.259-0.215
	c-0.006-0.148-0.146-0.202-0.333-0.21c0,0-1.539-0.263-2.103-0.377c-0.264-0.054-0.651-0.104-0.762-0.213
	c-0.104-0.117-0.124-0.198-0.136-0.466c0,0-0.138-4.476-0.148-4.735s0.012-0.313,0.22-0.573c0.507-0.633,6.464-6.912,6.464-6.912
	c0.163-0.178,0.217-0.385,0.041-0.539c-0.053-0.047-0.111-0.069-0.17-0.074l0.002-0.003H9.573L9.577,9.76
	C9.528,9.769,9.48,9.792,9.435,9.832c-0.176,0.154-0.122,0.361,0.041,0.539c0,0,5.958,6.279,6.465,6.912
	C16.149,17.543,16.171,17.598,16.161,17.857z M21.233,11.543l-4.603,4.668l-4.672-4.668H21.233z"/>
<linearGradient id="SVGID_1_" gradientUnits="userSpaceOnUse" x1="-1.5612" y1="34.9217" x2="28.4684" y2="4.8921">
	<stop  offset="0" style="stop-color:#37374C"/>
	<stop  offset="1" style="stop-color:#48425D"/>
</linearGradient>
<path fill="url(#SVGID_1_)" d="M8.856,41.715l0.084-0.252l2.922-8.816c0.221,0.066,0.448,0.115,0.672,0.173
	c1.328,0.34,2.712,0.541,4.146,0.541c9.212,0,16.68-7.468,16.68-16.68c0-0.388-0.032-0.769-0.058-1.15
	C32.709,6.857,25.504,0,16.68,0C7.468,0,0,7.468,0,16.68c0,7.219,4.594,13.348,11.011,15.671l-3.007,9.07
	c-0.691,0.027-1.246,0.587-1.246,1.284C6.759,43.42,7.338,44,8.053,44c0.714,0,1.294-0.58,1.294-1.294
	c0-0.143-0.039-0.274-0.081-0.403C9.187,42.066,9.045,41.869,8.856,41.715z M9.435,9.832C9.48,9.792,9.528,9.769,9.577,9.76
	L9.573,9.755h14.038l-0.002,0.003c0.059,0.005,0.117,0.026,0.17,0.074c0.176,0.155,0.122,0.361-0.041,0.539
	c0,0-5.958,6.279-6.464,6.912c-0.208,0.26-0.229,0.315-0.22,0.573c0.009,0.259,0.148,4.735,0.148,4.735
	c0.012,0.268,0.032,0.35,0.136,0.466c0.111,0.109,0.498,0.16,0.762,0.213c0.564,0.114,2.103,0.377,2.103,0.377
	c0.187,0.008,0.327,0.062,0.333,0.21c0.005,0.144-0.11,0.213-0.259,0.215c0,0-2.358-0.109-3.668-0.109
	c-1.311,0-3.668,0.109-3.668,0.109c-0.149-0.003-0.264-0.071-0.259-0.215c0.005-0.148,0.146-0.202,0.333-0.21
	c0,0,1.539-0.263,2.102-0.377c0.264-0.054,0.651-0.104,0.762-0.213c0.104-0.117,0.124-0.198,0.136-0.466
	c0,0,0.139-4.476,0.148-4.735c0.01-0.259-0.012-0.313-0.22-0.573c-0.507-0.633-6.465-6.912-6.465-6.912
	C9.313,10.193,9.26,9.986,9.435,9.832z M21.233,11.543h-9.275l4.672,4.668L21.233,11.543z"/>
</svg>
