<?xml version="1.0" encoding="utf-8"?>
<!-- Generator: Adobe Illustrator 17.0.0, SVG Export Plug-In . SVG Version: 6.00 Build 0)  -->
<!DOCTYPE svg PUBLIC "-//W3C//DTD SVG 1.1//EN" "http://www.w3.org/Graphics/SVG/1.1/DTD/svg11.dtd">
<svg version="1.1" id="Layer_1" xmlns="http://www.w3.org/2000/svg" xmlns:xlink="http://www.w3.org/1999/xlink" x="0px" y="0px"
	 width="34px" height="44px" viewBox="0 0 34 44" enable-background="new 0 0 34 44" xml:space="preserve">
<g>
	<linearGradient id="SVGID_1_" gradientUnits="userSpaceOnUse" x1="-1.5612" y1="34.9217" x2="28.4684" y2="4.8921">
		<stop  offset="0" style="stop-color:#E288B3"/>
		<stop  offset="1" style="stop-color:#EE8EB7"/>
	</linearGradient>
	<path fill="url(#SVGID_1_)" d="M11.853,12.377H13.8v7.029h-1.947V12.377z M19.569,12.377h1.94v7.029h-1.94V12.377z M15.723,12.377
		h1.922v7.029h-1.922V12.377z M8.855,41.715l0.084-0.252l2.922-8.816c0.221,0.066,0.448,0.115,0.673,0.173
		c1.328,0.34,2.712,0.541,4.146,0.541c9.212,0,16.68-7.468,16.68-16.68c0-0.388-0.032-0.769-0.058-1.15
		C32.709,6.857,25.504,0,16.68,0C7.468,0,0,7.468,0,16.68c0,7.219,4.594,13.348,11.011,15.671l-3.007,9.07
		c-0.691,0.027-1.246,0.587-1.246,1.284C6.759,43.42,7.338,44,8.053,44c0.714,0,1.294-0.58,1.294-1.294
		c0-0.143-0.039-0.274-0.081-0.403C9.187,42.066,9.045,41.869,8.855,41.715z M7.086,12.377l9.595-3.642l9.595,3.642h-2.843v7.029
		h1.115v1.732h0.997v1.043H7.818v-1.043h0.955v-1.732h1.156v-7.029C9.929,12.377,7.086,12.377,7.086,12.377z"/>
	<path fill="#FFFFFF" d="M8.773,19.406v1.732H7.818v1.043h17.725v-1.043h-0.997v-1.732h-1.115v-7.029h2.843L16.68,8.735
		l-9.595,3.642h2.843v7.029H8.773z M21.509,12.377v7.029h-1.94v-7.029C19.569,12.377,21.509,12.377,21.509,12.377z M17.645,12.377
		v7.029h-1.922v-7.029C15.723,12.377,17.645,12.377,17.645,12.377z M11.853,12.377H13.8v7.029h-1.947
		C11.853,19.406,11.853,12.377,11.853,12.377z"/>
</g>
</svg>
