<?xml version="1.0" encoding="utf-8"?>
<!-- Generator: Adobe Illustrator 17.0.0, SVG Export Plug-In . SVG Version: 6.00 Build 0)  -->
<!DOCTYPE svg PUBLIC "-//W3C//DTD SVG 1.1//EN" "http://www.w3.org/Graphics/SVG/1.1/DTD/svg11.dtd">
<svg version="1.1" id="Layer_1" xmlns="http://www.w3.org/2000/svg" xmlns:xlink="http://www.w3.org/1999/xlink" x="0px" y="0px"
	 width="34px" height="44px" viewBox="0 0 34 44" enable-background="new 0 0 34 44" xml:space="preserve">
<g>
	<linearGradient id="SVGID_1_" gradientUnits="userSpaceOnUse" x1="-1.5612" y1="34.9217" x2="28.4684" y2="4.8921">
		<stop  offset="0" style="stop-color:#E288B3"/>
		<stop  offset="1" style="stop-color:#EE8EB7"/>
	</linearGradient>
	<path fill="url(#SVGID_1_)" d="M13.095,13.116h7.129v7.129h-7.129V13.116z M33.36,16.681c0,9.212-7.468,16.68-16.68,16.68
		c-1.434,0-2.818-0.201-4.146-0.541c-0.225-0.058-0.452-0.107-0.673-0.173l-2.922,8.816l-0.084,0.252
		c0.19,0.154,0.332,0.351,0.411,0.588c0.042,0.129,0.081,0.26,0.081,0.403C9.347,43.42,8.767,44,8.053,44
		c-0.715,0-1.294-0.58-1.295-1.295c0-0.697,0.555-1.257,1.246-1.284l3.007-9.07C4.594,30.028,0,23.899,0,16.68
		C0,7.468,7.468,0,16.68,0c8.824,0,16.029,6.857,16.622,15.531C33.328,15.912,33.36,16.293,33.36,16.681z M23.788,9.552h-1.357
		c-0.737,0.415-1.583,0.653-2.488,0.653c-0.905,0-1.751-0.239-2.487-0.653h-1.509c-0.734,0.415-1.665,0.653-2.57,0.653
		c-0.904,0-1.751-0.239-2.486-0.653H9.532v1.425c0.508,0.789,1.044,1.557,1.044,2.565s-0.536,1.636-1.044,2.424v1.427
		c0.508,0.788,1.044,1.438,1.044,2.445c0,1.01-0.536,1.756-1.044,2.545v1.426v0.001h1.424c0.766-0.466,1.459-0.734,2.42-0.734
		c0.962,0,1.806,0.268,2.57,0.734h1.509c0.766-0.466,1.526-0.734,2.487-0.734c0.962,0,1.654,0.268,2.42,0.734h1.426v-1.426
		c-0.473-0.77-0.985-1.573-0.985-2.545c0-0.969,0.512-1.676,0.985-2.445v-1.427c-0.473-0.77-0.985-1.454-0.985-2.424
		c0-0.97,0.512-1.795,0.985-2.565V9.552z"/>
	<path fill="#FFFFFF" d="M13.377,23.075c0.961,0,1.805,0.268,2.57,0.734h1.509c0.766-0.466,1.526-0.734,2.487-0.734
		s1.654,0.268,2.42,0.734h1.426v-1.426c-0.473-0.77-0.985-1.572-0.985-2.545c0-0.969,0.512-1.676,0.985-2.445v-1.427
		c-0.473-0.77-0.985-1.454-0.985-2.424s0.512-1.795,0.985-2.565V9.552h-1.357c-0.737,0.414-1.583,0.653-2.488,0.653
		c-0.905,0-1.751-0.238-2.487-0.653h-1.509c-0.734,0.414-1.665,0.653-2.57,0.653c-0.904,0-1.751-0.238-2.486-0.653h-1.36v1.426
		c0.508,0.789,1.044,1.557,1.044,2.565s-0.536,1.636-1.044,2.424v1.427c0.508,0.787,1.044,1.438,1.044,2.445
		c0,1.009-0.536,1.755-1.044,2.545v1.426h1.426C11.723,23.343,12.415,23.075,13.377,23.075z M13.095,13.116h7.129v7.129h-7.129
		C13.095,20.245,13.095,13.116,13.095,13.116z"/>
</g>
</svg>
