<?xml version="1.0" encoding="utf-8"?>
<!-- Generator: Adobe Illustrator 17.0.0, SVG Export Plug-In . SVG Version: 6.00 Build 0)  -->
<!DOCTYPE svg PUBLIC "-//W3C//DTD SVG 1.1//EN" "http://www.w3.org/Graphics/SVG/1.1/DTD/svg11.dtd">
<svg version="1.1" id="Layer_1" xmlns="http://www.w3.org/2000/svg" xmlns:xlink="http://www.w3.org/1999/xlink" x="0px" y="0px"
	 width="34px" height="44px" viewBox="0 0 34 44" enable-background="new 0 0 34 44" xml:space="preserve">
<g>
	<linearGradient id="SVGID_1_" gradientUnits="userSpaceOnUse" x1="-1.5612" y1="34.9217" x2="28.4684" y2="4.8921">
		<stop  offset="0" style="stop-color:#84BC77"/>
		<stop  offset="1" style="stop-color:#89C87C"/>
	</linearGradient>
	<path fill="url(#SVGID_1_)" d="M19.729,12.994c0.774,0,1.402,0.628,1.402,1.402s-0.628,1.402-1.402,1.402s-1.402-0.628-1.402-1.402
		S18.955,12.994,19.729,12.994z M13.634,15.796c0.774,0,1.401-0.629,1.401-1.4c0-0.773-0.627-1.402-1.401-1.402
		c-0.772,0-1.4,0.629-1.4,1.402C12.235,15.167,12.862,15.796,13.634,15.796z M8.855,41.715l0.084-0.252l2.922-8.816
		c0.221,0.066,0.448,0.115,0.673,0.173c1.328,0.34,2.712,0.541,4.146,0.541c9.212,0,16.68-7.468,16.68-16.68
		c0-0.388-0.032-0.769-0.058-1.15C32.709,6.857,25.504,0,16.68,0C7.468,0,0,7.468,0,16.68c0,7.219,4.594,13.348,11.011,15.671
		l-3.007,9.07c-0.691,0.027-1.246,0.587-1.246,1.284C6.759,43.42,7.338,44,8.053,44c0.714,0,1.294-0.58,1.294-1.294
		c0-0.143-0.039-0.274-0.081-0.403C9.187,42.066,9.045,41.869,8.855,41.715z M11.755,9.373c0.692-1.15,2.396-2.493,4.928-2.493
		c2.53,0,4.234,1.343,4.924,2.493c1.664,2.773,2.857,15.292,2.857,15.297c-1.296-0.003-1.297-1.11-2.593-1.11
		s-1.296,1.11-2.594,1.11c-1.296,0-1.296-1.11-2.594-1.11h-0.001h-0.001c-1.298,0-1.298,1.11-2.596,1.11s-1.298-1.11-2.595-1.11
		s-1.297,1.108-2.594,1.11C8.896,24.665,10.091,12.146,11.755,9.373z"/>
	<path fill="#FFFFFF" d="M14.085,24.67c1.298,0,1.298-1.11,2.596-1.11h0.001h0.001c1.298,0,1.298,1.11,2.594,1.11
		c1.298,0,1.298-1.11,2.594-1.11s1.297,1.108,2.593,1.11c0-0.005-1.193-12.524-2.857-15.297c-0.69-1.15-2.395-2.493-4.924-2.493
		c-2.532,0-4.237,1.343-4.928,2.493c-1.664,2.773-2.858,15.292-2.858,15.297c1.297-0.003,1.297-1.11,2.594-1.11
		C12.787,23.56,12.787,24.67,14.085,24.67z M19.729,12.994c0.774,0,1.401,0.629,1.401,1.402s-0.627,1.402-1.401,1.402
		c-0.773,0-1.401-0.629-1.401-1.402C18.328,13.623,18.956,12.994,19.729,12.994z M13.634,12.994c0.774,0,1.401,0.629,1.401,1.402
		c0,0.771-0.627,1.4-1.401,1.4c-0.772,0-1.4-0.629-1.4-1.4C12.235,13.623,12.862,12.994,13.634,12.994z"/>
</g>
</svg>
