<?xml version="1.0" encoding="utf-8"?>
<!-- Generator: Adobe Illustrator 17.0.0, SVG Export Plug-In . SVG Version: 6.00 Build 0)  -->
<!DOCTYPE svg PUBLIC "-//W3C//DTD SVG 1.1//EN" "http://www.w3.org/Graphics/SVG/1.1/DTD/svg11.dtd">
<svg version="1.1" id="Layer_1" xmlns="http://www.w3.org/2000/svg" xmlns:xlink="http://www.w3.org/1999/xlink" x="0px" y="0px"
	 width="34px" height="44px" viewBox="0 0 34 44" enable-background="new 0 0 34 44" xml:space="preserve">
<g>
	
		<linearGradient id="SVGID_1_" gradientUnits="userSpaceOnUse" x1="-220.5609" y1="72.5781" x2="-190.5246" y2="102.6144" gradientTransform="matrix(1 0 0 -1 219 107.5)">
		<stop  offset="0" style="stop-color:#3C3A51"/>
		<stop  offset="1" style="stop-color:#48425D"/>
	</linearGradient>
	<path fill="url(#SVGID_1_)" d="M16.68,0C7.468,0,0,7.468,0,16.68c0,7.219,4.594,13.348,11.011,15.671l-3.007,9.07
		c-0.691,0.027-1.246,0.587-1.246,1.284C6.759,43.42,7.338,44,8.053,44c0.714,0,1.294-0.58,1.294-1.294
		c0-0.406-0.199-0.753-0.491-0.991l3.006-9.068c1.526,0.46,3.142,0.714,4.819,0.714c9.212,0,16.68-7.468,16.68-16.68
		C33.361,7.468,25.893,0,16.68,0z M11.557,23.1c-0.963,0.964-2.144-0.457-1.342-1.26c0.803-0.803,3.626-3.623,3.626-3.623
		l1.31,1.292C15.15,19.509,12.519,22.137,11.557,23.1z M21.317,23.188c-1.042-1.043-3.946-4.235-3.946-4.235l-0.798-0.02
		c-1.559-1.36-1.567-1.352-3.294-3.19c-1.631-1.738-3.286-3.821-3.246-4.823s0.935-0.452,0.935-0.452l11.664,11.664
		C23.234,22.734,22.08,23.952,21.317,23.188z M23.181,13.268l-2.426,2.426c-0.419,0.422-0.921,0.652-1.416,0.652
		c-0.436,0-0.846-0.181-1.186-0.52c-0.413-0.412-0.43-0.438-0.456-0.473c-0.011-0.015-0.019-0.025-0.179-0.185
		c-0.803-0.803-0.543-1.929,0.11-2.582l2.402-2.399c0.214-0.217,0.431-0.26,0.574-0.26c0.29,0,0.555,0.18,0.667,0.449
		c0.116,0.278,0.042,0.59-0.198,0.828l-2.238,2.24c-0.19,0.188-0.451,0.641-0.091,0.999l0.157,0.156
		c0.257,0.257,0.65,0.236,0.956-0.068l2.288-2.289c0.152-0.15,0.332-0.229,0.526-0.229c0.294,0,0.57,0.189,0.687,0.468
		C23.47,12.754,23.404,13.047,23.181,13.268z"/>
	<path fill="#FFFFFF" d="M10.967,10.468c0,0-0.895-0.55-0.935,0.452c-0.04,1.002,1.615,3.085,3.246,4.823
		c1.727,1.838,1.736,1.829,3.294,3.19l0.798,0.02c0,0,2.905,3.192,3.946,4.235c0.763,0.764,1.917-0.454,1.314-1.056L10.967,10.468z"
		/>
	<path fill="#FFFFFF" d="M10.214,21.841c-0.801,0.803,0.379,2.224,1.342,1.26c0.962-0.963,3.593-3.591,3.593-3.591l-1.31-1.292
		C13.841,18.217,11.018,21.038,10.214,21.841z"/>
	<path fill="#FFFFFF" d="M22.67,12.014c-0.193,0-0.373,0.079-0.526,0.229l-2.288,2.289c-0.305,0.305-0.699,0.325-0.956,0.068
		l-0.157-0.156c-0.36-0.358-0.098-0.812,0.091-0.999l2.238-2.24c0.239-0.238,0.314-0.55,0.198-0.828
		c-0.112-0.27-0.377-0.449-0.667-0.449c-0.143,0-0.36,0.043-0.574,0.26l-2.402,2.399c-0.653,0.653-0.913,1.779-0.11,2.582
		c0.159,0.159,0.168,0.17,0.179,0.185c0.026,0.035,0.044,0.06,0.456,0.473c0.34,0.339,0.75,0.52,1.186,0.52
		c0.494,0,0.996-0.23,1.416-0.652l2.426-2.426c0.223-0.221,0.289-0.515,0.177-0.786C23.24,12.203,22.964,12.014,22.67,12.014z"/>
</g>
</svg>
