<?xml version="1.0" encoding="utf-8"?>
<!-- Generator: Adobe Illustrator 17.0.0, SVG Export Plug-In . SVG Version: 6.00 Build 0)  -->
<!DOCTYPE svg PUBLIC "-//W3C//DTD SVG 1.1//EN" "http://www.w3.org/Graphics/SVG/1.1/DTD/svg11.dtd">
<svg version="1.1" id="Layer_1" xmlns="http://www.w3.org/2000/svg" xmlns:xlink="http://www.w3.org/1999/xlink" x="0px" y="0px"
	 width="34px" height="44px" viewBox="0 0 34 44" enable-background="new 0 0 34 44" xml:space="preserve">
<g>
	<path fill="#48425D" d="M22.919,14.028c-0.02-0.391-0.317-0.707-0.707-0.707c-0.294,0-0.791,0.216-0.974,0.42
		c-0.091,0.778-0.267,1.602-0.466,2.278C21.687,15.858,22.991,15.46,22.919,14.028z"/>
	<linearGradient id="SVGID_1_" gradientUnits="userSpaceOnUse" x1="-1.5614" y1="34.9214" x2="28.4681" y2="4.8919">
		<stop  offset="0" style="stop-color:#37374C"/>
		<stop  offset="1" style="stop-color:#48425D"/>
	</linearGradient>
	<path fill="url(#SVGID_1_)" d="M8.939,41.463l2.922-8.816c0.221,0.066,0.448,0.115,0.672,0.173c1.328,0.34,2.712,0.541,4.146,0.541
		c9.212,0,16.68-7.468,16.68-16.68c0-0.388-0.032-0.769-0.058-1.15C32.709,6.857,25.504,0,16.68,0C7.468,0,0,7.468,0,16.68
		c0,7.219,4.594,13.348,11.011,15.671l-3.007,9.07c-0.691,0.027-1.246,0.587-1.246,1.284C6.759,43.42,7.338,44,8.053,44
		c0.714,0,1.294-0.58,1.294-1.294c0-0.143-0.039-0.274-0.081-0.403c-0.079-0.237-0.22-0.434-0.41-0.588L8.939,41.463z
		 M11.418,11.967h9.428c0.261,0,0.472,0.21,0.472,0.47c0,0.047-0.001,0.096-0.002,0.143c0.231-0.09,0.474-0.143,0.708-0.143
		c0.911,0,1.747,0.713,1.747,1.624c0,1.636-1.772,2.812-3.309,2.854c-0.391,1.058-0.823,1.886-1.093,2.356
		c-0.083,0.148-0.24,0.237-0.409,0.237h-5.657c-0.169,0-0.325-0.089-0.408-0.237c-0.586-1.023-1.948-3.741-1.948-6.834
		C10.947,12.177,11.158,11.967,11.418,11.967z M10.533,21.394c-0.52,0-0.943-0.424-0.943-0.942h13.086
		c0,0.518-0.423,0.942-0.943,0.942H10.533z"/>
	<path fill="#FFFFFF" d="M13.303,19.508h5.657c0.169,0,0.325-0.089,0.409-0.237c0.27-0.471,0.702-1.299,1.093-2.356
		c1.537-0.042,3.309-1.218,3.309-2.854c0-0.911-0.836-1.624-1.747-1.624c-0.235,0-0.477,0.053-0.708,0.143
		c0.001-0.047,0.002-0.096,0.002-0.143c0-0.26-0.211-0.47-0.472-0.47h-9.428c-0.26,0-0.471,0.21-0.471,0.47
		c0,3.093,1.362,5.811,1.948,6.834C12.979,19.419,13.135,19.508,13.303,19.508z M21.239,13.741c0.183-0.204,0.68-0.42,0.974-0.42
		c0.39,0,0.687,0.316,0.707,0.707c0.072,1.432-1.232,1.83-2.147,1.991C20.971,15.343,21.147,14.52,21.239,13.741z"/>
	<path fill="#FFFFFF" d="M22.675,20.451H9.589c0,0.518,0.423,0.942,0.943,0.942h11.199C22.252,21.394,22.675,20.97,22.675,20.451z"
		/>
</g>
</svg>
