<?xml version="1.0" encoding="utf-8"?>
<!-- Generator: Adobe Illustrator 17.0.0, SVG Export Plug-In . SVG Version: 6.00 Build 0)  -->
<!DOCTYPE svg PUBLIC "-//W3C//DTD SVG 1.1//EN" "http://www.w3.org/Graphics/SVG/1.1/DTD/svg11.dtd">
<svg version="1.1" id="Layer_1" xmlns="http://www.w3.org/2000/svg" xmlns:xlink="http://www.w3.org/1999/xlink" x="0px" y="0px"
	 width="34px" height="44px" viewBox="0 0 34 44" enable-background="new 0 0 34 44" xml:space="preserve">
<g>
	<linearGradient id="SVGID_1_" gradientUnits="userSpaceOnUse" x1="-1.5612" y1="34.9217" x2="28.4684" y2="4.8921">
		<stop  offset="0" style="stop-color:#84BC77"/>
		<stop  offset="1" style="stop-color:#89C87C"/>
	</linearGradient>
	<path fill="url(#SVGID_1_)" d="M8.856,41.715l0.084-0.252l2.922-8.816c0.221,0.066,0.448,0.115,0.672,0.173
		c1.328,0.34,2.712,0.541,4.146,0.541c9.212,0,16.68-7.468,16.68-16.68c0-0.388-0.032-0.769-0.058-1.15
		C32.709,6.857,25.504,0,16.68,0C7.468,0,0,7.468,0,16.68c0,7.219,4.594,13.348,11.011,15.671l-3.007,9.07
		c-0.691,0.027-1.246,0.587-1.246,1.284C6.759,43.42,7.338,44,8.053,44c0.714,0,1.294-0.58,1.294-1.294
		c0-0.143-0.039-0.274-0.081-0.403C9.187,42.066,9.045,41.869,8.856,41.715z M7.115,11.638c0,0.838,0.7,1.562,1.562,1.562
		s1.562-0.724,1.562-1.562h0.04h0.797h0.04c0,0.838,0.701,1.562,1.562,1.562s1.562-0.724,1.562-1.562h0.04h0.797h0.04
		c0,0.838,0.701,1.562,1.562,1.562s1.562-0.724,1.562-1.562h0.04h0.798h0.04c0,0.838,0.701,1.562,1.562,1.562
		s1.562-0.724,1.562-1.562h0.04h0.797h0.04c0,0.838,0.701,1.562,1.562,1.562s1.562-0.724,1.562-1.562h0.838
		c0,1.256-1.077,2.4-2.4,2.4c-0.835,0-1.571-0.456-2.001-1.107c-0.43,0.651-1.166,1.107-2.001,1.107s-1.571-0.456-2.001-1.107
		c-0.43,0.652-1.166,1.107-2.001,1.107c-0.835,0-1.571-0.456-2.001-1.107c-0.43,0.652-1.166,1.107-2.001,1.107
		c-0.835,0-1.571-0.456-2.001-1.108c-0.43,0.652-1.166,1.108-2.001,1.108c-1.323,0-2.4-1.143-2.4-2.4
		C6.274,11.638,7.115,11.638,7.115,11.638z M7.115,15.746c0,0.838,0.7,1.562,1.562,1.562s1.562-0.724,1.562-1.562h0.04h0.797h0.04
		c0,0.838,0.701,1.562,1.562,1.562s1.562-0.724,1.562-1.562h0.04h0.797h0.04c0,0.838,0.701,1.562,1.562,1.562
		s1.562-0.724,1.562-1.562h0.04h0.798h0.04c0,0.838,0.701,1.562,1.562,1.562s1.562-0.724,1.562-1.562h0.04h0.797h0.04
		c0,0.838,0.701,1.562,1.562,1.562s1.562-0.724,1.562-1.562h0.838c0,1.256-1.077,2.4-2.4,2.4c-0.835,0-1.571-0.456-2.001-1.107
		c-0.43,0.651-1.166,1.107-2.001,1.107s-1.571-0.456-2.001-1.107c-0.43,0.652-1.166,1.107-2.001,1.107
		c-0.835,0-1.571-0.456-2.001-1.107c-0.43,0.652-1.166,1.107-2.001,1.107c-0.835,0-1.571-0.456-2.001-1.108
		c-0.43,0.652-1.166,1.108-2.001,1.108c-1.323,0-2.4-1.143-2.4-2.4H7.115z M8.677,22.254c-1.323,0-2.4-1.143-2.4-2.4h0.838
		c0,0.838,0.7,1.562,1.562,1.562s1.562-0.724,1.562-1.562h0.04h0.797h0.04c0,0.838,0.701,1.562,1.562,1.562s1.562-0.724,1.562-1.562
		h0.04h0.797h0.04c0,0.838,0.701,1.562,1.562,1.562s1.562-0.724,1.562-1.562h0.04h0.798h0.04c0,0.838,0.701,1.562,1.562,1.562
		s1.562-0.724,1.562-1.562h0.04h0.797h0.04c0,0.838,0.701,1.562,1.562,1.562s1.562-0.724,1.562-1.562h0.838
		c0,1.256-1.077,2.4-2.4,2.4c-0.835,0-1.571-0.456-2.001-1.107c-0.43,0.651-1.166,1.107-2.001,1.107s-1.571-0.456-2.001-1.107
		c-0.43,0.652-1.166,1.107-2.001,1.107c-0.835,0-1.571-0.456-2.001-1.107c-0.43,0.652-1.166,1.107-2.001,1.107
		c-0.835,0-1.571-0.456-2.001-1.107C10.248,21.798,9.512,22.254,8.677,22.254z"/>
	<path fill="#FFFFFF" d="M8.677,18.146c0.835,0,1.571-0.456,2.001-1.108c0.43,0.652,1.166,1.108,2.001,1.108
		c0.835,0,1.571-0.456,2.001-1.107c0.43,0.652,1.166,1.107,2.001,1.107s1.571-0.456,2.001-1.107c0.43,0.652,1.166,1.107,2.001,1.107
		s1.571-0.456,2.001-1.107c0.43,0.651,1.166,1.107,2.001,1.107c1.323,0,2.4-1.143,2.4-2.4h-0.838c0,0.838-0.701,1.562-1.562,1.562
		s-1.562-0.724-1.562-1.562h-0.04h-0.797h-0.04c0,0.838-0.701,1.562-1.562,1.562s-1.562-0.724-1.562-1.562h-0.04h-0.798h-0.04
		c0,0.838-0.701,1.562-1.562,1.562s-1.562-0.724-1.562-1.562h-0.04h-0.797h-0.04c0,0.838-0.701,1.562-1.562,1.562
		s-1.562-0.724-1.562-1.562h-0.04h-0.797h-0.04c0,0.838-0.701,1.562-1.562,1.562s-1.562-0.724-1.562-1.562H6.277
		C6.277,17.003,7.354,18.146,8.677,18.146z"/>
	<path fill="#FFFFFF" d="M12.679,22.254c0.835,0,1.571-0.456,2.001-1.107c0.43,0.652,1.166,1.107,2.001,1.107
		s1.571-0.456,2.001-1.107c0.43,0.652,1.166,1.107,2.001,1.107s1.571-0.456,2.001-1.107c0.43,0.651,1.166,1.107,2.001,1.107
		c1.323,0,2.4-1.143,2.4-2.4h-0.838c0,0.838-0.701,1.562-1.562,1.562s-1.562-0.724-1.562-1.562h-0.04h-0.797h-0.04
		c0,0.838-0.701,1.562-1.562,1.562s-1.562-0.724-1.562-1.562h-0.04h-0.798h-0.04c0,0.838-0.701,1.562-1.562,1.562
		s-1.562-0.724-1.562-1.562h-0.04h-0.797h-0.04c0,0.838-0.701,1.562-1.562,1.562s-1.562-0.724-1.562-1.562h-0.04h-0.797h-0.04
		c0,0.838-0.701,1.562-1.562,1.562s-1.562-0.724-1.562-1.562H6.277c0,1.256,1.077,2.4,2.4,2.4c0.835,0,1.571-0.456,2.001-1.107
		C11.108,21.798,11.843,22.254,12.679,22.254z"/>
	<path fill="#FFFFFF" d="M8.677,14.038c0.835,0,1.571-0.456,2.001-1.108c0.43,0.652,1.166,1.108,2.001,1.108
		c0.835,0,1.571-0.456,2.001-1.107c0.43,0.652,1.166,1.107,2.001,1.107s1.571-0.456,2.001-1.107c0.43,0.652,1.166,1.107,2.001,1.107
		s1.571-0.456,2.001-1.107c0.43,0.651,1.166,1.107,2.001,1.107c1.323,0,2.4-1.143,2.4-2.4h-0.838c0,0.838-0.701,1.562-1.562,1.562
		s-1.562-0.724-1.562-1.562h-0.04h-0.797h-0.04c0,0.838-0.701,1.562-1.562,1.562s-1.562-0.724-1.562-1.562h-0.04h-0.798h-0.04
		c0,0.838-0.701,1.562-1.562,1.562s-1.562-0.724-1.562-1.562h-0.04h-0.797h-0.04c0,0.838-0.701,1.562-1.562,1.562
		s-1.562-0.724-1.562-1.562h-0.04h-0.797h-0.04c0,0.838-0.701,1.562-1.562,1.562s-1.562-0.724-1.562-1.562H6.277
		C6.277,12.895,7.354,14.038,8.677,14.038z"/>
</g>
</svg>
