<?xml version="1.0" encoding="utf-8"?>
<!-- Generator: Adobe Illustrator 17.0.0, SVG Export Plug-In . SVG Version: 6.00 Build 0)  -->
<!DOCTYPE svg PUBLIC "-//W3C//DTD SVG 1.1//EN" "http://www.w3.org/Graphics/SVG/1.1/DTD/svg11.dtd">
<svg version="1.1" id="Layer_1" xmlns="http://www.w3.org/2000/svg" xmlns:xlink="http://www.w3.org/1999/xlink" x="0px" y="0px"
	 width="34px" height="44px" viewBox="0 0 34 44" enable-background="new 0 0 34 44" xml:space="preserve">
<g>
	<linearGradient id="SVGID_1_" gradientUnits="userSpaceOnUse" x1="-1.5612" y1="34.9217" x2="28.4684" y2="4.8921">
		<stop  offset="0" style="stop-color:#84BC77"/>
		<stop  offset="1" style="stop-color:#89C87C"/>
	</linearGradient>
	<path fill="url(#SVGID_1_)" d="M8.856,41.715l0.084-0.252l2.922-8.816c0.221,0.066,0.448,0.115,0.672,0.173
		c1.328,0.34,2.712,0.541,4.146,0.541c9.212,0,16.68-7.468,16.68-16.68c0-0.388-0.032-0.769-0.058-1.15
		C32.709,6.857,25.504,0,16.68,0C7.468,0,0,7.468,0,16.68c0,7.219,4.594,13.348,11.011,15.671l-3.007,9.07
		c-0.691,0.027-1.246,0.587-1.246,1.284C6.759,43.42,7.338,44,8.053,44c0.714,0,1.294-0.58,1.294-1.294
		c0-0.143-0.039-0.274-0.081-0.403C9.187,42.066,9.045,41.869,8.856,41.715z M10.746,21.215c1.12-2.391,3.511-5.083,7.071-6.862
		c0.131-0.077,0.195-0.233,0.144-0.376c-0.052-0.156-0.233-0.235-0.389-0.184c-3.211,1.146-5.234,2.163-6.443,3.372
		c-0.073-1.903,0.009-2.734,0.826-3.88c1.808-2.507,6.241-2.844,10.321-2.844c0.232,0,0.428,0.18,0.428,0.415
		c0,2.379-0.014,9.565-7.213,9.565c-0.428,0-0.883,0-1.352-0.051c-0.494,0.739-0.923,1.415-1.105,1.806
		c-0.193,0.468-0.66,0.742-1.13,0.742c-0.167,0-0.351-0.027-0.507-0.104C10.774,22.54,10.502,21.828,10.746,21.215z"/>
	<path fill="#FFFFFF" d="M11.904,22.919c0.47,0,0.937-0.274,1.13-0.742c0.183-0.391,0.611-1.066,1.105-1.806
		c0.469,0.051,0.924,0.051,1.352,0.051c7.199,0,7.213-7.187,7.213-9.565c0-0.235-0.195-0.415-0.428-0.415
		c-4.08,0-8.514,0.337-10.321,2.844c-0.817,1.146-0.899,1.977-0.826,3.88c1.209-1.209,3.232-2.227,6.443-3.372
		c0.155-0.052,0.337,0.027,0.389,0.184c0.052,0.143-0.013,0.299-0.144,0.376c-3.561,1.779-5.951,4.472-7.071,6.862
		c-0.244,0.613,0.028,1.325,0.651,1.6C11.552,22.892,11.737,22.919,11.904,22.919z"/>
</g>
</svg>
